<svg id="icon-logo-surtimax" xmlns="http://www.w3.org/2000/svg" width="68.659" height="21.246" viewBox="0 0 68.659 21.246">
  <g id="img">
    <g id="Grupo_18556" data-name="Grupo 18556">
      <path id="Trazado_34706" data-name="Trazado 34706" d="M-842.163,1516.938h64.443a2.867,2.867,0,0,1,2.868,2.868v14.162a2.868,2.868,0,0,1-2.868,2.868h-61.6a2.844,2.844,0,0,1-2.84-2.868Z" transform="translate(842.838 -1516.264)" fill="#fff"/>
      <path id="Trazado_34707" data-name="Trazado 34707" d="M-779.047,1536.185h-61.6a3.532,3.532,0,0,1-3.514-3.542v-17.7h65.117a3.546,3.546,0,0,1,3.542,3.542v14.162A3.546,3.546,0,0,1-779.047,1536.185Zm-63.768-19.9v16.355a2.182,2.182,0,0,0,2.166,2.193h61.6a2.2,2.2,0,0,0,2.193-2.193V1518.48a2.2,2.2,0,0,0-2.193-2.194Z" transform="translate(844.164 -1514.938)" fill="#636363"/>
    </g>
    <g id="Grupo_18557" data-name="Grupo 18557" transform="translate(2.838 2.604)">
      <path id="Trazado_34708" data-name="Trazado 34708" d="M-835.745,1522.662h60.3a2.513,2.513,0,0,1,2.676,2.311v11.414a2.513,2.513,0,0,1-2.676,2.312H-833.1a2.488,2.488,0,0,1-2.649-2.312Z" transform="translate(835.745 -1522.662)" fill="#646464"/>
    </g>
    <g id="Grupo_18563" data-name="Grupo 18563" transform="translate(5.137 8.653)">
      <g id="Grupo_18558" data-name="Grupo 18558" transform="translate(0 0)">
        <path id="Trazado_34709" data-name="Trazado 34709" d="M-827.325,1546.194a1.549,1.549,0,0,0,.306.8,1.824,1.824,0,0,0,1.434.48,3.2,3.2,0,0,0,.987-.126.91.91,0,0,0,.719-.9.66.66,0,0,0-.352-.6,3.912,3.912,0,0,0-1.118-.364l-.871-.185a5.546,5.546,0,0,1-1.766-.6,1.873,1.873,0,0,1-.813-1.682,2.2,2.2,0,0,1,.8-1.734,3.477,3.477,0,0,1,2.339-.69,3.675,3.675,0,0,1,2.2.651,2.289,2.289,0,0,1,.954,1.89h-1.617a1.11,1.11,0,0,0-.649-1,2.294,2.294,0,0,0-1-.2,1.96,1.96,0,0,0-1.064.254.794.794,0,0,0-.4.706.664.664,0,0,0,.392.622,4.989,4.989,0,0,0,1.07.322l1.413.322a3.654,3.654,0,0,1,1.393.564,1.873,1.873,0,0,1,.72,1.587,2.2,2.2,0,0,1-.853,1.769,3.691,3.691,0,0,1-2.41.7,4.037,4.037,0,0,1-2.5-.694,2.262,2.262,0,0,1-.911-1.906Z" transform="translate(828.931 -1540.595)" fill="#e4e4e4"/>
      </g>
      <g id="Grupo_18559" data-name="Grupo 18559" transform="translate(7.854 0.227)">
        <path id="Trazado_34710" data-name="Trazado 34710" d="M-805.642,1541.268h1.709v4.773a2.62,2.62,0,0,0,.2,1.17,1.311,1.311,0,0,0,1.328.653,1.306,1.306,0,0,0,1.323-.653,2.62,2.62,0,0,0,.2-1.17v-4.773h1.71v4.776a3.888,3.888,0,0,1-.4,1.93,3,3,0,0,1-2.83,1.266,3.012,3.012,0,0,1-2.835-1.266,3.888,3.888,0,0,1-.4-1.93Z" transform="translate(805.642 -1541.268)" fill="#e4e4e4"/>
      </g>
      <g id="Grupo_18560" data-name="Grupo 18560" transform="translate(15.97 0.227)">
        <path id="Trazado_34711" data-name="Trazado 34711" d="M-776.455,1541.469a1.978,1.978,0,0,1,.753.543,2.4,2.4,0,0,1,.405.653,2.113,2.113,0,0,1,.149.817,2.264,2.264,0,0,1-.289,1.089,1.608,1.608,0,0,1-.956.757,1.5,1.5,0,0,1,.789.614,2.488,2.488,0,0,1,.232,1.216v.522a3.785,3.785,0,0,0,.045.722.65.65,0,0,0,.31.443v.194h-1.857c-.051-.172-.087-.311-.109-.416a3.706,3.706,0,0,1-.071-.67l-.011-.722a1.434,1.434,0,0,0-.266-.991,1.393,1.393,0,0,0-.958-.248h-1.643v3.047h-1.644v-7.771h3.85A3.617,3.617,0,0,1-776.455,1541.469Zm-3.477,1.149v2.088h1.811a2,2,0,0,0,.809-.126.869.869,0,0,0,.477-.875.971.971,0,0,0-.462-.949,1.723,1.723,0,0,0-.778-.137Z" transform="translate(781.576 -1541.268)" fill="#e4e4e4"/>
      </g>
      <g id="Grupo_18561" data-name="Grupo 18561" transform="translate(23.339 0.227)">
        <path id="Trazado_34712" data-name="Trazado 34712" d="M-753.207,1541.268v1.376h-2.409v6.4h-1.693v-6.4h-2.419v-1.376Z" transform="translate(759.728 -1541.268)" fill="#e4e4e4"/>
      </g>
      <g id="Grupo_18562" data-name="Grupo 18562" transform="translate(30.707 0.227)">
        <path id="Trazado_34713" data-name="Trazado 34713" d="M-736.209,1549.039h-1.671v-7.771h1.671Z" transform="translate(737.88 -1541.268)" fill="#e4e4e4"/>
      </g>
    </g>
    <g id="Grupo_18564" data-name="Grupo 18564" transform="translate(39.487 4.89)">
      <path id="Trazado_34714" data-name="Trazado 34714" d="M-727.076,1529.438h3.266l1.53,7.9h.019l1.529-7.9h3.266v11.973h-2.1v-8.955h-.019l-1.764,8.955h-1.839l-1.764-8.955h-.018v8.955h-2.1Z" transform="translate(727.076 -1529.438)" fill="#fff"/>
    </g>
    <g id="Grupo_18565" data-name="Grupo 18565" transform="translate(48.302 4.89)">
      <path id="Trazado_34715" data-name="Trazado 34715" d="M-698.028,1529.438h2.731l2.881,11.973h-2.393l-.4-1.946h-2.928l-.4,1.946h-2.393Zm1.36,3.018h-.019l-.929,4.528h1.877Z" transform="translate(700.937 -1529.438)" fill="#fff"/>
    </g>
    <path id="Trazado_34716" data-name="Trazado 34716" d="M-676.114,1535.19l-2.6-5.751h2.656l1.229,3.22,1.229-3.22h2.656l-2.6,5.751,2.91,6.221H-673.4l-1.427-3.622-1.427,3.622h-2.768Z" transform="translate(734.716 -1524.548)" fill="#fff"/>
  </g>
</svg>
