<svg id="icon-outlined-facebook_redes_02" data-name="icon-outlined-facebook redes 02" xmlns="http://www.w3.org/2000/svg" width="29.474" height="29.474" viewBox="0 0 29.474 29.474">
  <path id="iconmonstr-facebook-5" d="M14.737,2.456A12.281,12.281,0,1,1,2.456,14.737,12.281,12.281,0,0,1,14.737,2.456Zm0-2.456A14.737,14.737,0,1,0,29.474,14.737,14.737,14.737,0,0,0,14.737,0ZM12.281,12.281H9.825v2.456h2.456v7.369h3.684V14.737H18.2l.221-2.456H15.965V11.258c0-.587.118-.819.685-.819h1.771V7.369H15.469c-2.208,0-3.188,2.834-3.188,2.834Z" fill="#86888a"/>
</svg>
