<svg id="icon-fill_-_Puntos_colombia_2" data-name="icon-fill -  Puntos colombia  2" xmlns="http://www.w3.org/2000/svg" xmlns:xlink="http://www.w3.org/1999/xlink" width="30" height="30" viewBox="0 0 30 30">
  <defs>
    <clipPath id="clip-path">
      <rect id="Rectángulo_10650" data-name="Rectángulo 10650" width="30" height="30" rx="2" fill="#676767"/>
    </clipPath>
  </defs>
  <g id="Enmascarar_grupo_870" data-name="Enmascarar grupo 870" clip-path="url(#clip-path)">
    <path id="Nuevo" d="M5.83,25H.626A.627.627,0,0,1,0,24.374V10.461A10.655,10.655,0,0,1,10.651,0l.206,0a10.65,10.65,0,0,1,7.377,18.126A10.66,10.66,0,0,1,6.844,20.6a.289.289,0,0,0-.1-.019.285.285,0,0,0-.285.284v3.509A.626.626,0,0,1,5.83,25ZM10.977,5.113a5.155,5.155,0,0,0-3.9,1.5A5.648,5.648,0,0,0,5.646,10.65a5.7,5.7,0,0,0,1.4,4.032,4.934,4.934,0,0,0,3.8,1.5,4.958,4.958,0,0,0,3.3-1.1,4.211,4.211,0,0,0,1.5-2.879H13.293a2.388,2.388,0,0,1-2.467,2.005,2.444,2.444,0,0,1-2.05-.987,4.108,4.108,0,0,1-.752-2.574A4.127,4.127,0,0,1,8.79,8.068a2.46,2.46,0,0,1,2.066-.98,2.4,2.4,0,0,1,2.437,2h2.362a4.408,4.408,0,0,0-1.481-2.886A4.758,4.758,0,0,0,10.977,5.113Z" transform="translate(4.35 2.5)" fill="#fff"/>
  </g>
</svg>
