<svg id="icon-fill-other-laptop-phone_tecnologia" data-name="icon-fill-other-laptop-phone tecnologia" xmlns="http://www.w3.org/2000/svg" xmlns:xlink="http://www.w3.org/1999/xlink" width="30" height="30" viewBox="0 0 30 30">
  <defs>
    <clipPath id="clip-path">
      <path id="Trazado_16443" data-name="Trazado 16443" d="M2.5,0h25A2.5,2.5,0,0,1,30,2.5v25A2.5,2.5,0,0,1,27.5,30H2.5A2.5,2.5,0,0,1,0,27.5V2.5A2.5,2.5,0,0,1,2.5,0Z" transform="translate(345 327)" fill="none" stroke="#3dcfea" stroke-width="2"/>
    </clipPath>
  </defs>
  <g id="Enmascarar_grupo_25834" data-name="Enmascarar grupo 25834" transform="translate(-345 -327)" clip-path="url(#clip-path)">
    <path id="noun-device-5291814" d="M108.873,52.5H91.566a2.294,2.294,0,0,0-2.595,2.595V67.209h13.234v-5.8a2.673,2.673,0,0,1,.887-2.018,3.008,3.008,0,0,1,2.141-.836h6.059l.176,0V55.1a2.294,2.294,0,0,0-2.595-2.595Zm1.986,6.922h-5.193a2.595,2.595,0,0,0-2.595,2.595V74.132a2.294,2.294,0,0,0,2.595,2.595h5.193a2.294,2.294,0,0,0,2.595-2.595V62.017a2.294,2.294,0,0,0-2.595-2.595Zm-22.5,8.653h13.844v5.192H90.091A2.294,2.294,0,0,1,87.5,70.671V68.94a.865.865,0,0,1,.865-.865ZM107.4,72.4h1.731a.865.865,0,1,1,0,1.731H107.4a.865.865,0,1,1,0-1.731Z" transform="translate(259.539 277.5)" fill="#fff" fill-rule="evenodd"/>
  </g>
</svg>
