<svg id="icon-other-fill_-protected-purchase_candado_seguro_compra_segura" data-name="icon-other-fill -protected-purchase candado seguro compra segura" xmlns="http://www.w3.org/2000/svg" xmlns:xlink="http://www.w3.org/1999/xlink" width="30" height="30" viewBox="0 0 30 30">
  <defs>
    <clipPath id="clip-path">
      <rect id="Rect치ngulo_9817" data-name="Rect치ngulo 9817" width="30" height="30" fill="#d94747"/>
    </clipPath>
  </defs>
  <g id="icon-protected-purchase" clip-path="url(#clip-path)">
    <path id="Exclusi칩n_13" data-name="Exclusi칩n 13" d="M9.535,22.8a2.267,2.267,0,0,1-.679-.1A12.463,12.463,0,0,1,2.506,18,13.34,13.34,0,0,1,0,10.315V4.9A2.314,2.314,0,0,1,1.549,2.737L8.7.145A2.392,2.392,0,0,1,9.523,0a2.339,2.339,0,0,1,.847.157l7.151,2.591A2.311,2.311,0,0,1,19.07,4.9v5.413A13.342,13.342,0,0,1,16.564,18a12.463,12.463,0,0,1-6.35,4.7A2.267,2.267,0,0,1,9.535,22.8ZM6.079,9.123a1.134,1.134,0,0,0-1.152,1.113V15.8a1.134,1.134,0,0,0,1.152,1.113h6.912A1.135,1.135,0,0,0,14.143,15.8V10.236a1.135,1.135,0,0,0-1.152-1.113h-.576V8.01a2.882,2.882,0,0,0-5.76,0V9.123Zm3.456,5.566c-1.211,0-1.728-.5-1.728-1.67s.517-1.67,1.728-1.67,1.728.5,1.728,1.67S10.746,14.689,9.535,14.689Zm1.152-5.566h-2.3V8.01c0-.926.194-1.113,1.152-1.113s1.152.187,1.152,1.113V9.122Z" transform="translate(5.465 3.437)" fill="#fff"/>
  </g>
</svg>
