<svg id="icon-fill-credit_card_tarjeta_credito" data-name="icon-fill-credit card tarjeta credito" xmlns="http://www.w3.org/2000/svg" xmlns:xlink="http://www.w3.org/1999/xlink" width="30" height="30" viewBox="0 0 30 30">
  <defs>
    <clipPath id="clip-path">
      <path id="Trazado_16394" data-name="Trazado 16394" d="M2.5,0h25A2.5,2.5,0,0,1,30,2.5v25A2.5,2.5,0,0,1,27.5,30H2.5A2.5,2.5,0,0,1,0,27.5V2.5A2.5,2.5,0,0,1,2.5,0Z" fill="none" stroke="#3dcfea" stroke-width="2"/>
    </clipPath>
  </defs>
  <g id="Enmascarar_grupo_25829" data-name="Enmascarar grupo 25829" clip-path="url(#clip-path)">
    <path id="noun-card-5697011" d="M137.3,121.12a3.964,3.964,0,0,0-3.03,1.02,4.419,4.419,0,0,0-.936,3.164v9.913a4.42,4.42,0,0,0,.937,3.165,3.965,3.965,0,0,0,3.03,1.02h17a3.964,3.964,0,0,0,3.03-1.02,4.421,4.421,0,0,0,.936-3.165V125.3a4.418,4.418,0,0,0-.936-3.164,3.964,3.964,0,0,0-3.03-1.02Zm0,5.241h17a.942.942,0,1,1,0,1.883h-17A.942.942,0,0,1,137.3,126.361Z" transform="translate(-130.829 -114.87)" fill="#fff"/>
  </g>
</svg>
