<svg id="icon-outlined-twitter_redes_02" data-name="icon-outlined-twitter redes 02" xmlns="http://www.w3.org/2000/svg" width="29.474" height="29.474" viewBox="0 0 29.474 29.474">
  <path id="iconmonstr-twitter-5" d="M14.737,2.456A12.281,12.281,0,1,1,2.456,14.737,12.281,12.281,0,0,1,14.737,2.456Zm0-2.456A14.737,14.737,0,1,0,29.474,14.737,14.737,14.737,0,0,0,14.737,0Z" fill="#86888a"/>
  <path id="logo" d="M8.98,6.529,14.6,0H13.266L8.389,5.669,4.493,0H0L5.891,8.573,0,15.42H1.331L6.482,9.433,10.6,15.42h4.493L8.98,6.529ZM7.157,8.649,6.56,7.8,1.811,1H3.855L7.688,6.484l.6.854,4.982,7.126H11.222L7.157,8.649Z" transform="translate(7.193 6.95)" fill="#86888a"/>
</svg>
