<svg id="icon-logo-carulla_logo" data-name="icon-logo-carulla logo" xmlns="http://www.w3.org/2000/svg" width="49.47" height="25.894" viewBox="0 0 49.47 25.894">
  <path id="Trazado_1122" data-name="Trazado 1122" d="M1184.735,601.894c-13.66,0-24.735-5.073-24.735-12.947,0-7.151,11.074-12.947,24.735-12.947s24.735,5.072,24.735,12.947c0,7.151-11.074,12.947-24.735,12.947" transform="translate(-1160 -576)" fill="#4d4d4d"/>
  <path id="Trazado_1123" data-name="Trazado 1123" d="M1209.157,595.392a.456.456,0,0,0-.643.026,1.034,1.034,0,0,1-.906.342,1.172,1.172,0,0,1-.862-.7,2.517,2.517,0,0,1-.118-.279,5.64,5.64,0,0,0,.18-1.433c0-1.3-.295-1.483-.614-1.483a.549.549,0,0,0-.451.27,2.311,2.311,0,0,0-1.983-.084,2.537,2.537,0,0,0-1.423,1.83,2.918,2.918,0,0,0,.054,1.394,1.791,1.791,0,0,1-1.775.4,1.506,1.506,0,0,1-.307-.17,15.716,15.716,0,0,0,.482-6.187c-.185-1.97-.762-3.094-1.584-3.094h-.03c-.831.027-1.339,1.189-1.4,3.188-.083,2.965.443,5.186,1.469,6.355a4.958,4.958,0,0,1-.893,1.46,2.708,2.708,0,0,1-2.058.944,2.763,2.763,0,0,1-2.083-.949,4.615,4.615,0,0,1-.888-1.525c.982-1.108,1.629-3.107,1.769-5.689.111-2.04-.411-3.457-1.3-3.524-.919-.07-1.557,1.245-1.8,3.7a14.231,14.231,0,0,0,.294,5.252,1.541,1.541,0,0,1-.923.321,1.5,1.5,0,0,1-1.31-.684,2.81,2.81,0,0,1-.344-.784,6.93,6.93,0,0,0,.179-1.507c0-.327,0-1.2-.619-1.2-.444,0-.642.438-.642,1.423a5.842,5.842,0,0,0,.144,1.293,3.381,3.381,0,0,1-.438,1,1,1,0,0,1-.827.514.976.976,0,0,1-.865-.456,2.106,2.106,0,0,1-.272-.588,5.947,5.947,0,0,0,.188-1.5c0-1.034-.2-1.5-.646-1.5-.219,0-.626,0-.626,1.654a5.248,5.248,0,0,0,.168,1.4,1.25,1.25,0,0,1-1.132.953c-.912,0-1.112-.9-1.156-1.289a6.208,6.208,0,0,1,.013-1.479c.038-.353.072-.657-.177-.874a.707.707,0,0,0-.65-.106,3.9,3.9,0,0,1-1.645.066,1.52,1.52,0,0,0-.275-.516.622.622,0,0,0-.838-.125.664.664,0,0,0-.274.842,1.136,1.136,0,0,0,.633.52,3.36,3.36,0,0,1-.491,2.539,1.077,1.077,0,0,1-1.861-.3,2.66,2.66,0,0,1-.118-.279,5.629,5.629,0,0,0,.18-1.433c0-1.3-.295-1.483-.614-1.483a.566.566,0,0,0-.451.27,2.311,2.311,0,0,0-1.982-.084,2.538,2.538,0,0,0-1.423,1.83,2.928,2.928,0,0,0,.059,1.414,2.517,2.517,0,0,0,.093.239,3.673,3.673,0,0,1-2.944,1.407,3.156,3.156,0,0,1-3.057-1.885,4.821,4.821,0,0,1,.537-4.956,3.337,3.337,0,0,1,3.381-1.363,1.412,1.412,0,0,1,1.083,1.205,1.981,1.981,0,0,1-.7,1.685.459.459,0,0,0-.067.647.463.463,0,0,0,.65.068,2.91,2.91,0,0,0,1.033-2.507,2.326,2.326,0,0,0-1.743-1.982,4.219,4.219,0,0,0-4.354,1.665,5.766,5.766,0,0,0-.73,5.96,4.226,4.226,0,0,0,3.965,2.449,4.521,4.521,0,0,0,3.5-1.642,1.96,1.96,0,0,0,1.272.47,2.156,2.156,0,0,0,1.836-.927,1.947,1.947,0,0,0,1.349.829,2.039,2.039,0,0,0,1.8-.71,4.06,4.06,0,0,0,.745-2.913,5.013,5.013,0,0,0,1.213-.034c.111-.017.154.014.143.123a6.8,6.8,0,0,0,.01,1.464,2.092,2.092,0,0,0,2.061,2.095,1.828,1.828,0,0,0,1.558-.831,1.878,1.878,0,0,0,1.627.866,1.958,1.958,0,0,0,1.754-1.2,2.406,2.406,0,0,0,2.1,1.141,2.346,2.346,0,0,0,1.229-.349,5.285,5.285,0,0,0,.943,1.515,3.648,3.648,0,0,0,5.488.007,5.646,5.646,0,0,0,.944-1.469,2.554,2.554,0,0,0,.3.146,2.511,2.511,0,0,0,2.527-.467,1.968,1.968,0,0,0,1.513.708,2.154,2.154,0,0,0,1.837-.928,2,2,0,0,0,1.326.827,1.952,1.952,0,0,0,1.705-.624.452.452,0,0,0-.026-.641m-32.871-.109a1.261,1.261,0,0,1-1.11.568,1.045,1.045,0,0,1-.815-.383,1.694,1.694,0,0,1-.268-1.419,1.612,1.612,0,0,1,.9-1.169,1.369,1.369,0,0,1,.565-.121,1.77,1.77,0,0,1,.836.229,5.12,5.12,0,0,0,.142,1.793,2.186,2.186,0,0,1-.252.5m16.62-5.008a6.389,6.389,0,0,1,.648-2.652c.106-.168.259-.161.346.016a4.967,4.967,0,0,1,.29,2.321,10.226,10.226,0,0,1-1.166,4.651,14.607,14.607,0,0,1-.118-4.336m6.7,4.419a10.121,10.121,0,0,1-.914-5.255,5.386,5.386,0,0,1,.347-2.035c.088-.184.249-.191.352-.017a5.294,5.294,0,0,1,.495,2.017,15.785,15.785,0,0,1-.28,5.29m5.818.589a1.259,1.259,0,0,1-1.109.567,1.044,1.044,0,0,1-.815-.383,1.694,1.694,0,0,1-.268-1.419,1.615,1.615,0,0,1,.9-1.169,1.371,1.371,0,0,1,.564-.121,1.773,1.773,0,0,1,.837.229,5.111,5.111,0,0,0,.141,1.794,2.176,2.176,0,0,1-.252.5" transform="translate(-1162.262 -579.921)" fill="#fff"/>
</svg>
