<svg id="Icon-logo-instagram_redes_02" data-name="Icon-logo-instagram redes 02" xmlns="http://www.w3.org/2000/svg" width="29.474" height="29.474" viewBox="0 0 29.474 29.474">
  <g id="Grupo_3967" data-name="Grupo 3967" transform="translate(-208.58 -2681.263)">
    <path id="Path_163" data-name="Path 163" d="M35.185,23.88H26.327a2.567,2.567,0,0,0-2.563,2.563V35.3a2.567,2.567,0,0,0,2.563,2.564h8.858A2.567,2.567,0,0,0,37.749,35.3V26.444A2.567,2.567,0,0,0,35.185,23.88Zm-4.429,11.6a4.6,4.6,0,1,1,4.6-4.6,4.6,4.6,0,0,1-4.6,4.6Zm4.753-8.256A1.089,1.089,0,1,1,36.6,26.132a1.089,1.089,0,0,1-1.091,1.092Z" transform="translate(192.069 2665.027)" fill="#86888a"/>
    <path id="Path_164" data-name="Path 164" d="M39.507,36.971a2.659,2.659,0,1,0,2.658,2.657A2.659,2.659,0,0,0,39.507,36.971Z" transform="translate(183.318 2656.271)" fill="#86888a"/>
  </g>
  <path id="iconmonstr-pinterest-5" d="M14.737,2.456A12.281,12.281,0,1,1,2.456,14.737,12.281,12.281,0,0,1,14.737,2.456Zm0-2.456A14.737,14.737,0,1,0,29.474,14.737,14.737,14.737,0,0,0,14.737,0Z" fill="#86888a"/>
</svg>
