<svg id="logo-viva-_centro_comercial" data-name="logo-viva- centro comercial" xmlns="http://www.w3.org/2000/svg" width="37.21" height="37.21" viewBox="0 0 37.21 37.21">
  <circle id="Elipse_389" data-name="Elipse 389" cx="18.605" cy="18.605" r="18.605" fill="#1d1d1b"/>
  <ellipse id="Elipse_390" data-name="Elipse 390" cx="2.047" cy="1.985" rx="2.047" ry="1.985" transform="translate(11.783 8.682)" fill="#eee"/>
  <path id="XMLID_229_" d="M274.769,38.561a9.607,9.607,0,0,1-.062-1.364V31.739a2.421,2.421,0,0,0-.434-1.55,4.061,4.061,0,0,0-1.116-.93,5.672,5.672,0,0,0-1.55-.434,15.205,15.205,0,0,0-1.674-.124,8.856,8.856,0,0,0-1.8.186,6.174,6.174,0,0,0-1.612.558,2.746,2.746,0,0,0-.93.744l.434-1.24h-2.977l-2.295,7.194h-.062L258.4,28.948h-8.682l-2.295,7.194h-.062l-2.295-7.194H241.9l3.721,10.543h3.349l3.473-9.861v9.861h2.977V29.63l3.535,9.861H262.3l2.543-7.318h2.915a1.611,1.611,0,0,1,.62-1.24,2.432,2.432,0,0,1,1.426-.372,3.02,3.02,0,0,1,.744.062c.248.062.434.124.62.186a1.45,1.45,0,0,1,.434.434,1.322,1.322,0,0,1,.186.744.847.847,0,0,1-.248.682,2.434,2.434,0,0,1-.806.372c-.31.062-.744.124-1.178.186a9.409,9.409,0,0,0-1.3.186c-.434.062-.93.186-1.364.248a5.181,5.181,0,0,0-1.178.5,3.111,3.111,0,0,0-.868.93,2.658,2.658,0,0,0-.31,1.488,3.446,3.446,0,0,0,.31,1.426,2.489,2.489,0,0,0,.806.992,3.458,3.458,0,0,0,1.178.558,5.427,5.427,0,0,0,1.488.186,6.989,6.989,0,0,0,1.985-.31,3.56,3.56,0,0,0,1.674-.992c0,.186.062.372.062.5a2.2,2.2,0,0,0,.248.558l2.977-.062C274.893,39.3,274.831,38.995,274.769,38.561Zm-3.1-3.1a2.326,2.326,0,0,1-.062.62,2.168,2.168,0,0,1-.31.806,1.616,1.616,0,0,1-.744.682,2.774,2.774,0,0,1-1.364.31,2.325,2.325,0,0,1-.682-.062c-.248-.062-.434-.124-.62-.186a1.45,1.45,0,0,1-.434-.434,1.02,1.02,0,0,1-.124-.62,2.23,2.23,0,0,1,.124-.682,2.7,2.7,0,0,1,.372-.434,2.2,2.2,0,0,1,.558-.248c.248-.062.434-.124.682-.186s.5-.062.744-.124a2.23,2.23,0,0,0,.682-.124c.186-.062.434-.062.62-.124a1.247,1.247,0,0,0,.5-.248Z" transform="translate(-240.04 -15.615)" fill="#eee"/>
  <g id="Grupo_25567" data-name="Grupo 25567" transform="translate(4.465 26.171)">
    <path id="Trazado_14421" data-name="Trazado 14421" d="M246.1,50.792h0a.98.98,0,0,1,.992-.992.846.846,0,0,1,.744.31l-.248.31a.766.766,0,0,0-.5-.248.573.573,0,0,0-.558.62h0a.612.612,0,0,0,.558.62.5.5,0,0,0,.5-.248l.248.248a1.105,1.105,0,0,1-.806.372A.9.9,0,0,1,246.1,50.792Z" transform="translate(-246.1 -49.8)" fill="#fff"/>
    <path id="Trazado_14422" data-name="Trazado 14422" d="M249.3,49.8h1.488v.372h-1.054v.372h.93v.372h-.93v.434h1.054v.372H249.3Z" transform="translate(-247.315 -49.8)" fill="#fff"/>
    <path id="Trazado_14423" data-name="Trazado 14423" d="M252.1,49.8h.372l.93,1.178V49.8h.434v1.985h-.372l-.93-1.24v1.24H252.1Z" transform="translate(-248.379 -49.8)" fill="#fff"/>
    <path id="Trazado_14424" data-name="Trazado 14424" d="M255.82,50.284h-.62V49.9h1.612v.384h-.62v1.6h-.434Z" transform="translate(-249.557 -49.9)" fill="#fff"/>
    <path id="Trazado_14425" data-name="Trazado 14425" d="M258.1,49.8h.868a.758.758,0,0,1,.558.186.563.563,0,0,1,.186.434h0a.674.674,0,0,1-.434.62l.5.682h-.5l-.434-.62h-.31v.62H258.1Zm.868.992a.284.284,0,0,0,.31-.248h0a.293.293,0,0,0-.31-.31h-.434v.558Z" transform="translate(-250.658 -49.8)" fill="#fff"/>
    <path id="Trazado_14426" data-name="Trazado 14426" d="M261,50.792h0a1.056,1.056,0,0,1,2.109,0h0a1.056,1.056,0,0,1-2.109,0Zm1.674,0h0a.586.586,0,0,0-.62-.62c-.372,0-.558.248-.558.62h0a.622.622,0,0,0,.62.62C262.488,51.412,262.674,51.164,262.674,50.792Z" transform="translate(-251.76 -49.8)" fill="#fff"/>
    <path id="Trazado_14427" data-name="Trazado 14427" d="M265.8,50.792h0a.98.98,0,0,1,.992-.992.846.846,0,0,1,.744.31l-.248.31a.766.766,0,0,0-.5-.248.573.573,0,0,0-.558.62h0a.612.612,0,0,0,.558.62.5.5,0,0,0,.5-.248l.248.248a1.1,1.1,0,0,1-.806.372A.968.968,0,0,1,265.8,50.792Z" transform="translate(-253.583 -49.8)" fill="#fff"/>
    <path id="Trazado_14428" data-name="Trazado 14428" d="M268.8,50.792h0a1.056,1.056,0,0,1,2.109,0h0a1.056,1.056,0,0,1-2.109,0Zm1.612,0h0a.586.586,0,0,0-.62-.62c-.372,0-.558.248-.558.62h0a.621.621,0,0,0,.62.62C270.226,51.412,270.412,51.164,270.412,50.792Z" transform="translate(-254.722 -49.8)" fill="#fff"/>
    <path id="Trazado_14429" data-name="Trazado 14429" d="M272.6,49.8h.5l.5.806.5-.806h.5v1.985h-.434v-1.3l-.558.868h0l-.558-.806v1.24H272.6Z" transform="translate(-256.166 -49.8)" fill="#fff"/>
    <path id="Trazado_14430" data-name="Trazado 14430" d="M276.3,49.8h1.488v.372h-1.054v.372h.93v.372h-.93v.434h1.054v.372H276.3Z" transform="translate(-257.571 -49.8)" fill="#fff"/>
    <path id="Trazado_14431" data-name="Trazado 14431" d="M279.1,49.8h.868a.758.758,0,0,1,.558.186.563.563,0,0,1,.186.434h0a.674.674,0,0,1-.434.62l.5.682h-.5l-.434-.62h-.31v.62H279.1Zm.868.992a.284.284,0,0,0,.31-.248h0a.293.293,0,0,0-.31-.31h-.434v.558Z" transform="translate(-258.634 -49.8)" fill="#fff"/>
    <path id="Trazado_14432" data-name="Trazado 14432" d="M282,50.792h0a.98.98,0,0,1,.992-.992.846.846,0,0,1,.744.31l-.248.31a.766.766,0,0,0-.5-.248.573.573,0,0,0-.558.62h0a.612.612,0,0,0,.558.62.5.5,0,0,0,.5-.248l.248.248a1.105,1.105,0,0,1-.806.372A.968.968,0,0,1,282,50.792Z" transform="translate(-259.736 -49.8)" fill="#fff"/>
    <path id="Trazado_14433" data-name="Trazado 14433" d="M285.2,49.8h.434v1.985H285.2Z" transform="translate(-260.952 -49.8)" fill="#fff"/>
    <path id="Trazado_14434" data-name="Trazado 14434" d="M287.106,49.8h.372l.868,1.985h-.434l-.186-.434h-.806l-.186.434H286.3Zm.434,1.178-.248-.62-.248.62Z" transform="translate(-261.369 -49.8)" fill="#fff"/>
    <path id="Trazado_14435" data-name="Trazado 14435" d="M289.8,49.8h.434v1.6h.992v.384H289.8Z" transform="translate(-262.699 -49.8)" fill="#fff"/>
  </g>
</svg>
