<svg id="Icon-logo-tiktok_redes_02" data-name="Icon-logo-tiktok redes 02" xmlns="http://www.w3.org/2000/svg" width="29.474" height="29.474" viewBox="0 0 29.474 29.474">
  <path id="iconmonstr-pinterest-5" d="M14.737,2.456A12.281,12.281,0,1,1,2.456,14.737,12.281,12.281,0,0,1,14.737,2.456Zm0-2.456A14.737,14.737,0,1,0,29.474,14.737,14.737,14.737,0,0,0,14.737,0Z" fill="#86888a"/>
  <path id="Trazado_16378" data-name="Trazado 16378" d="M14.847,7.021q-.213.021-.427.022a4.632,4.632,0,0,1-3.876-2.095v7.133A5.272,5.272,0,1,1,5.272,6.809c.11,0,.218.01.326.017v2.6a2.706,2.706,0,0,0-.326-.033,2.691,2.691,0,1,0,0,5.381,2.757,2.757,0,0,0,2.8-2.657L8.1,0h2.485a4.63,4.63,0,0,0,4.267,4.133V7.021" transform="translate(7.53 5.806)" fill="#86888a"/>
</svg>
